<?xml version="1.0" encoding="UTF-8"?>
<svg class="" enable-background="new 0 0 512 512" version="1.1" viewBox="0 0 120 120" xml:space="preserve" xmlns="http://www.w3.org/2000/svg"><path class="" d="m95 103h-83c-1.1046 0-2-0.895-2-2v-57h87v57c0 1.105-0.8954 2-2 2z" fill="#68b7ff" data-original="#ffba33"/><path class="" d="m97 44h-44v-34h25.1058c.7461 0 1.4302.4153 1.7744 1.0773z" fill="#41b6ff" data-original="#ffdd9a"/><path class="" d="m10 44h43v-34h-24.0154c-.7445 0-1.4275.4136-1.7724 1.0735z" fill="#33b0ff" data-original="#ffcc68"/><path class="" d="m110 82c0 15.464-12.536 28-28 28s-28-12.536-28-28 12.536-28 28-28 28 12.536 28 28z" fill="#c6e9ff" data-original="#027ef1"/><path class="" d="m86 73c0-2.2091-1.7909-4-4-4s-4 1.7909-4 4v5h-5c-2.2091 0-4 1.7909-4 4s1.7909 4 4 4h5v5c0 2.2091 1.7909 4 4 4s4-1.7909 4-4v-5h5c2.2091 0 4-1.7909 4-4s-1.7909-4-4-4h-5z" fill="#41b6ff" data-original="#ffffff"/></svg>
