<?xml version="1.0" encoding="UTF-8"?>
<svg class="" enable-background="new 0 0 512 512" version="1.1" viewBox="0 0 512 512" xml:space="preserve" xmlns="http://www.w3.org/2000/svg"><path class="" d="m248.77 1.654-229.27 110.68c-2.875 1.388-4.701 4.298-4.701 7.49v272.35c0 3.192 1.827 6.102 4.701 7.49l229.27 110.68c4.569 2.206 9.895 2.206 14.464 0l229.27-110.68c2.875-1.388 4.701-4.298 4.701-7.49v-272.35c0-3.192-1.827-6.102-4.701-7.49l-229.27-110.68c-4.569-2.205-9.895-2.205-14.464 0z" fill="#4fccff" style="" data-original="#ffe17d"/><path class="" d="m16.181 115.27c-0.874 1.331-1.383 2.898-1.383 4.553v272.35c0 3.192 1.827 6.102 4.701 7.49l229.27 110.68c2.284 1.103 4.758 1.654 7.232 1.654v-280.95l-239.82-115.78z" fill="#73cfff" style="" data-original="#ffc350"/><path class="" d="m495.82 115.27c0.874 1.331 1.383 2.898 1.383 4.553v272.35c0 3.192-1.827 6.102-4.701 7.49l-229.27 110.68c-2.284 1.103-4.758 1.655-7.232 1.655v-280.95l239.82-115.78z" fill="#73b5ff" style="" data-original="#ffd164"/><path class="" d="m83.407 377.66c-1.21 0-2.445-0.268-3.606-0.828l-35.397-17.089c-4.142-1.998-5.872-6.969-3.874-11.103 1.99-4.134 6.977-5.856 11.103-3.874l35.397 17.09c4.142 1.998 5.872 6.969 3.874 11.103-1.429 2.971-4.402 4.701-7.497 4.701z" fill="#4fccff" style="" data-original="#ffe17d"/><path d="m115.99 356.45c-1.21 0-2.445-0.268-3.606-0.828l-67.928-32.79c-4.134-1.998-5.872-6.969-3.874-11.103 1.99-4.126 6.985-5.856 11.103-3.874l67.927 32.79c4.134 1.998 5.872 6.969 3.874 11.103-1.428 2.971-4.401 4.702-7.496 4.702z" fill="#fff6d8" style="" data-original="#fff6d8"/><polygon class="" points="414.55 154.37 173.89 38.11 110.45 68.86 351.65 185.3" fill="#ff8087" style="" data-original="#ff8087"/><path d="m351.65 185.3v90.207c0 3.066 3.205 5.078 5.967 3.745l52.232-25.215c2.875-1.388 4.701-4.298 4.701-7.49v-92.176l-62.9 30.929z" fill="#e6646e" style="" data-original="#e6646e"/></svg>
