<?xml version="1.0" encoding="UTF-8"?>
<svg class="" enable-background="new 0 0 512 512" version="1.1" viewBox="0 0 512 512" xml:space="preserve" xmlns="http://www.w3.org/2000/svg"><path class="" d="m512 256c0 141.38-114.62 256-256 256-33.896 0-66.247-6.583-95.859-18.547-8.035-3.25-15.882-6.896-23.489-10.919-0.167-0.094-0.345-0.178-0.512-0.272-5.329-2.832-10.543-5.841-15.642-9.028-1.923-1.202-3.824-2.424-5.716-3.678-5.026-3.323-9.927-6.834-14.691-10.501-12.037-9.258-23.239-19.56-33.437-30.783-25.673-28.181-45.129-62.119-56.205-99.652-6.802-23.019-10.449-47.396-10.449-72.62 0-141.38 114.62-256 256-256s256 114.62 256 256z" fill="#caefff" style="" data-original="#ffd13f"/><path class="" d="m509.26 293.5c-10.742 73.216-52.475 136.35-111.45 175.67-30.375 20.25-65.348 34.179-103.01 39.905-12.653 1.933-25.61 2.926-38.807 2.926-24.012 0-47.25-3.302-69.287-9.488v-209.01h322.55z" fill="#3b465c" style="" data-original="#3b465c"/><g fill="#fff"><path class="" d="m397.81 319.59v149.58c-6.499 4.326-13.208 8.37-20.104 12.11-21.013 11.368-43.813 19.895-67.856 25.036-4.963 1.066-9.979 1.985-15.047 2.759v-189.48h103.01z" style="" data-original="#ffffff"/><path class="" d="m420.52 372.83-58.776-322.74c-3.127-17.173-27.747-17.173-30.875 0l-58.777 322.74 74.214-79.633 74.214 79.633z" style="" data-original="#ffffff"/></g><g fill="#e8a87c"><circle class="" cx="245.7" cy="171.35" r="33.792" style="" data-original="#e8a87c"/><circle class="" cx="446.35" cy="171.35" r="33.792" style="" data-original="#e8a87c"/></g><path class="" d="m346.3 293.9c-55.565 0-100.61-45.043-100.61-100.61v-129.15h201.22v129.15c-1e-3 55.564-45.044 100.61-100.61 100.61z" fill="#fec495" style="" data-original="#fec495"/><path class="" d="m360.7 292.87c-4.702 0.679-9.498 1.024-14.388 1.024-55.568 0-100.61-45.035-100.61-100.6v-129.15h28.787v129.15c-1e-3 50.678 37.469 92.599 86.214 99.579z" fill="#e8a87c" style="" data-original="#e8a87c"/><path class="" d="m266.95 85.975-31.139 15.672v71.311c17.198 0 31.139-13.942 31.139-31.139v-55.844z" fill="#253140" style="" data-original="#253140"/><g fill="#3b465c"><path class="" d="m425.66 31.121h31.139v141.84c-17.198 0-31.139-13.942-31.139-31.139v-110.7z" style="" data-original="#3b465c"/><path class="" d="m411.02 101.65h-175.21c0-55.63 45.097-100.73 100.73-100.73h175.21c1e-3 55.629-45.096 100.73-100.73 100.73z" style="" data-original="#3b465c"/></g><path class="" d="m383.78 0.921h-47.239c-55.63 0-100.73 45.098-100.73 100.73h47.24c-1e-3 -55.63 45.096-100.73 100.73-100.73z" fill="#253140" style="" data-original="#253140"/><g fill="#232323"><path class="" d="m321.8 161.2c0-10.387-8.42-18.807-18.807-18.807s-18.807 8.42-18.807 18.807" style="" data-original="#232323"/><path class="" d="m408 161.2c0-10.387-8.42-18.807-18.807-18.807s-18.807 8.42-18.807 18.807" style="" data-original="#232323"/></g><path class="" d="m362.26 179.02h-31.923c-5.467 0-9.898 4.431-9.898 9.898s4.431 9.898 9.898 9.898h31.923c5.467 0 9.898-4.431 9.898-9.898 0-5.466-4.431-9.898-9.898-9.898z" fill="#e8a87c" style="" data-original="#e8a87c"/><path class="" d="m299.28 209.26c0 25.968 21.051 47.018 47.018 47.018 25.968 0 47.018-21.051 47.018-47.018" fill="#fff" style="" data-original="#ffffff"/><g fill="#3fc7ff"><rect class="" transform="matrix(.7071 -.7071 .7071 .7071 -133.81 342.32)" x="318.88" y="305.26" width="54.857" height="54.857" style="" data-original="#fb4a75"/><path class="" d="m377.71 481.28c-21.013 11.368-43.813 19.895-67.856 25.036l35.088-186.72 1.369-7.283 1.358 7.283 30.041 161.69z" style="" data-original="#fb4a75"/></g><path d="m160.14 395.54v97.917c-8.035-3.25-15.882-6.896-23.489-10.919-0.167-0.094-0.345-0.178-0.512-0.272-5.329-2.832-10.543-5.841-15.642-9.028v-77.699l39.643 1e-3z" fill="#e89435" style="" data-original="#e89435"/><path class="" d="m160.14 443.79v49.664c-8.035-3.25-15.882-6.896-23.489-10.919v-38.745h23.489z" fill="#fdbc69" style="" data-original="#fdbc69"/><path class="" d="m270.2 276.01v127.04c0 13.928-11.295 25.224-25.224 25.224h-178.32c-25.673-28.181-45.129-62.119-56.205-99.652v-52.611c0-13.928 11.295-25.224 25.224-25.224h209.3c13.929 0 25.224 11.295 25.224 25.224z" fill="#3fc7ff" style="" data-original="#b5423c"/><g fill="#fff"><path class="" d="m69.366 331.56c-4.962-2.006-7.137-3.142-7.137-5.594 0-2.542 2.059-3.832 6.121-3.832 3.105 0 4.774 0.858 6.115 1.547 0.968 0.497 1.969 1.012 3.181 1.012 3.434 0 5.261-3.564 5.261-6.137 0-6.947-13.066-7.147-14.556-7.147-8.632 0-17.856 4.001-17.856 15.229 0 10.221 7.538 13.401 13.594 15.956 5.298 2.235 8.295 3.684 8.295 7.483 0 4.001-3.366 4.841-6.189 4.841-3.878 0-5.715-1.665-7.336-3.133-1.188-1.075-2.415-2.188-4.181-2.188-3.039 0-5.396 3.299-5.396 6.137 0 4.845 7.056 10.245 17.182 10.245 10.889 0 17.654-6.377 17.654-16.643 0-11.811-8.526-15.259-14.752-17.776z" style="" data-original="#ffffff"/><path class="" d="m121.92 315.2c-0.81-2.426-3.463-3.996-6.759-3.996-3.256 0-5.883 1.568-6.71 4.048l-13.385 43.593c-0.185 0.555-0.185 1.042-0.185 1.332 0 3.147 3.487 5.261 6.743 5.261 3.356 0 4.395-2.164 4.699-3.142l2.283-7.904h13.179l2.296 7.952c0.605 1.937 2.331 3.094 4.618 3.094 3.289 0 6.811-2.114 6.811-5.261 0-0.575-0.152-1.03-0.235-1.277l-13.355-43.7zm-10.432 28.873 3.672-12.594 3.672 12.594h-7.344z" style="" data-original="#ffffff"/><path class="" d="m175.3 354.52h-15.214v-38.315c0-2.744-2.358-4.588-5.868-4.588-3.454 0-5.867 1.887-5.867 4.588v44.588c0 2.654 2.349 4.655 5.464 4.655h21.485c2.538 0 4.453-2.349 4.453-5.464 0-3.166-1.873-5.464-4.453-5.464z" style="" data-original="#ffffff"/><path class="" d="m222.04 354.52h-17.706v-10.895h8.074c3.024 0 4.655-2.607 4.655-5.059 0-2.961-2.002-5.194-4.655-5.194h-8.074v-10.828h17.706c2.697 0 4.655-2.326 4.655-5.531 0-3.126-1.958-5.396-4.655-5.396h-23.978c-3.115 0-5.464 2.001-5.464 4.655v44.52c0 2.654 2.349 4.655 5.464 4.655h23.977c2.697 0 4.655-2.27 4.655-5.396 1e-3 -3.205-1.956-5.531-4.654-5.531z" style="" data-original="#ffffff"/></g></svg>
